
<svg viewBox="0 0 16 16" xmlns="http://www.w3.org/2000/svg">
  <path d="M5.33317 2.66659C5.33317 1.93021 5.93012 1.33325 6.6665 1.33325H9.33317C10.0695 1.33325 10.6665 1.93021 10.6665 2.66659H5.33317Z"/>
  <path d="M3.33317 3.33325C2.96498 3.33325 2.6665 3.63173 2.6665 3.99992C2.6665 4.36811 2.96498 4.66659 3.33317 4.66659H12.6665C13.0347 4.66659 13.3332 4.36811 13.3332 3.99992C13.3332 3.63173 13.0347 3.33325 12.6665 3.33325H3.33317Z"/>
  <path fill-rule="evenodd" clip-rule="evenodd" d="M3.86716 12.8091L3.33317 5.33325H12.6665L12.1325 12.8091C12.0578 13.8557 11.1869 14.6666 10.1376 14.6666H5.86208C4.8128 14.6666 3.94192 13.8557 3.86716 12.8091ZM5.99984 7.16659C5.99984 6.89044 6.22369 6.66659 6.49984 6.66659C6.77598 6.66659 6.99984 6.89044 6.99984 7.16659V12.1666C6.99984 12.4427 6.77598 12.6666 6.49984 12.6666C6.22369 12.6666 5.99984 12.4427 5.99984 12.1666V7.16659ZM9.49984 6.66659C9.22369 6.66659 8.99984 6.89044 8.99984 7.16659V12.1666C8.99984 12.4427 9.22369 12.6666 9.49984 12.6666C9.77598 12.6666 9.99984 12.4427 9.99984 12.1666V7.16659C9.99984 6.89044 9.77598 6.66659 9.49984 6.66659Z"/>
</svg>