
<svg viewBox="0 0 22 22" xmlns="http://www.w3.org/2000/svg">
  <path fill-rule="evenodd" clip-rule="evenodd" d="M1.07475 5.58425C0.797969 5.48194 0.510351 5.40145 0.213948 5.34483C0.192187 5.34069 0.170378 5.33666 0.14852 5.33275C-0.0495067 5.29742 -0.0495067 5.01339 0.14852 4.97807C0.170378 4.97416 0.192187 4.97013 0.213948 4.96599C0.510351 4.90936 0.797969 4.82888 1.07475 4.72657C1.24038 4.66533 1.40214 4.59631 1.55957 4.51988C2.6498 3.99071 3.53273 3.10785 4.06197 2.0177C4.13838 1.86028 4.20744 1.69854 4.26865 1.53291C4.37096 1.25616 4.45146 0.968563 4.50809 0.672184C4.51223 0.650424 4.51626 0.628617 4.52016 0.60676C4.5555 0.408749 4.83955 0.408749 4.87488 0.60676C4.87879 0.628617 4.88281 0.650424 4.88696 0.672184C4.94358 0.968563 5.02408 1.25616 5.1264 1.53291C5.18764 1.69854 5.25666 1.86028 5.3331 2.0177C5.86231 3.10785 6.74524 3.99071 7.83549 4.51988C7.99292 4.59631 8.15467 4.66533 8.32029 4.72657C8.59708 4.82888 8.88469 4.90936 9.18111 4.96599C9.20287 4.97013 9.22467 4.97416 9.24652 4.97807C9.44456 5.01339 9.44456 5.29742 9.24652 5.33275C9.22467 5.33666 9.20287 5.34069 9.18111 5.34483C8.88469 5.40145 8.59708 5.48194 8.32029 5.58425C8.15467 5.64548 7.99292 5.71451 7.83549 5.79094C6.74524 6.32011 5.86231 7.20297 5.3331 8.29313C5.25666 8.45055 5.18764 8.61228 5.1264 8.7779C5.02408 9.05466 4.94358 9.34225 4.88696 9.63865C4.88281 9.66038 4.87879 9.6822 4.87488 9.70405C4.83955 9.90208 4.5555 9.90208 4.52016 9.70405C4.51626 9.6822 4.51223 9.66038 4.50809 9.63865C4.45146 9.34225 4.37096 9.05466 4.26865 8.7779C4.20744 8.61228 4.13838 8.45055 4.06197 8.29313C3.53273 7.20297 2.6498 6.32011 1.55957 5.79094C1.40214 5.71451 1.24038 5.64548 1.07475 5.58425ZM7.69186 12.6204C7.49828 12.5683 7.30202 12.5225 7.10328 12.4834C7.07221 12.4773 7.04111 12.4713 7.00995 12.4655L7.00049 12.4638L6.98772 12.4614C6.96805 12.4578 6.94646 12.454 6.90328 12.4462L6.8882 12.4436C6.5715 12.3836 6.5715 11.9302 6.8882 11.8703L6.90328 11.8676C6.94646 11.8598 6.96805 11.856 6.98772 11.8524L7.00049 11.8501L7.00995 11.8483C7.04111 11.8425 7.07221 11.8366 7.10325 11.8305C7.30199 11.7913 7.49828 11.7455 7.69186 11.6934C7.8572 11.6488 8.02058 11.5996 8.18186 11.5459C10.7912 10.6761 12.8444 8.62302 13.7142 6.01391C13.768 5.85264 13.8172 5.68927 13.8618 5.52392C13.9139 5.33039 13.9597 5.13411 13.9989 4.93539C14.005 4.90435 14.0109 4.87325 14.0167 4.84209L14.0185 4.83264L14.0208 4.81986C14.0244 4.80043 14.0282 4.77911 14.0357 4.73689L14.036 4.73544L14.0387 4.72035C14.0986 4.40368 14.5521 4.40368 14.612 4.72035L14.6147 4.73544C14.6224 4.77861 14.6263 4.8002 14.6299 4.81986L14.6322 4.83264L14.634 4.84209C14.6398 4.87325 14.6457 4.90435 14.6518 4.93539C14.691 5.13414 14.7367 5.33039 14.7889 5.52392C14.8335 5.68927 14.8827 5.85264 14.9364 6.01391C15.8062 8.62302 17.8595 10.6761 20.4688 11.5459C20.6301 11.5996 20.7935 11.6488 20.9588 11.6934C21.1524 11.7455 21.3487 11.7913 21.5474 11.8305C21.5785 11.8366 21.6096 11.8425 21.6407 11.8483L21.6502 11.8501L21.663 11.8524C21.6826 11.856 21.7042 11.8598 21.7474 11.8676L21.7625 11.8703C22.0792 11.9302 22.0792 12.3836 21.7625 12.4436L21.7474 12.4462L21.7017 12.4544L21.663 12.4614L21.6502 12.4638L21.6407 12.4655C21.6096 12.4713 21.5785 12.4773 21.5474 12.4834C21.3487 12.5225 21.1524 12.5683 20.9588 12.6204C20.7935 12.665 20.6301 12.7142 20.4688 12.768C17.8595 13.6377 15.8062 15.6908 14.9364 18.2999C14.8827 18.4612 14.8335 18.6245 14.7889 18.7899C14.7367 18.9834 14.691 19.1797 14.6518 19.3784C14.6457 19.4095 14.6398 19.4406 14.634 19.4717L14.6322 19.4812L14.6299 19.494L14.6246 19.5227L14.615 19.5767L14.612 19.5935C14.5521 19.9101 14.0986 19.9101 14.0387 19.5935L14.036 19.5784C14.0283 19.5353 14.0244 19.5136 14.0208 19.494L14.0185 19.4812L14.0167 19.4717C14.0109 19.4406 14.005 19.4095 13.9989 19.3784C13.9597 19.1797 13.9139 18.9834 13.8618 18.7899C13.8172 18.6245 13.768 18.4612 13.7142 18.2999C12.8444 15.6908 10.7912 13.6377 8.18186 12.768C8.02058 12.7142 7.8572 12.665 7.69186 12.6204ZM3.32456 18.6946C3.65742 18.7582 3.97272 18.8694 4.26319 19.021C4.39241 19.0885 4.51669 19.1639 4.63541 19.2467C4.96622 19.4773 5.25386 19.7649 5.48452 20.0957C5.56729 20.2144 5.64274 20.3387 5.71016 20.4679C5.86182 20.7583 5.97306 21.0736 6.03663 21.4065C6.03926 21.4202 6.04183 21.434 6.04428 21.4478C6.0666 21.5729 6.246 21.5729 6.26831 21.4478C6.27076 21.434 6.2733 21.4202 6.27593 21.4065C6.33953 21.0736 6.45078 20.7583 6.6024 20.4679C6.66985 20.3387 6.7453 20.2144 6.82807 20.0957C7.0587 19.7649 7.34637 19.4773 7.67718 19.2467C7.7959 19.1639 7.92018 19.0885 8.04937 19.021C8.33987 18.8694 8.65517 18.7582 8.98803 18.6946C9.00177 18.692 9.01554 18.6894 9.02934 18.687C9.15441 18.6647 9.15441 18.4852 9.02934 18.463C9.01554 18.4605 9.00177 18.4579 8.98803 18.4553C8.65517 18.3917 8.33987 18.2805 8.04937 18.1289C7.92018 18.0614 7.7959 17.986 7.67718 17.9032C7.34637 17.6726 7.0587 17.385 6.82807 17.0542C6.7453 16.9355 6.66985 16.8112 6.6024 16.682C6.45078 16.3916 6.33953 16.0763 6.27593 15.7434C6.2733 15.7297 6.27076 15.7159 6.26831 15.7021C6.246 15.5771 6.0666 15.5771 6.04428 15.7021C6.04183 15.7159 6.03926 15.7297 6.03663 15.7434C5.97306 16.0763 5.86182 16.3916 5.71016 16.682C5.64274 16.8112 5.56729 16.9355 5.48452 17.0542C5.25386 17.385 4.96622 17.6726 4.63541 17.9032C4.51669 17.986 4.39241 18.0614 4.26319 18.1289C3.97272 18.2805 3.65742 18.3917 3.32456 18.4553C3.31082 18.4579 3.29705 18.4605 3.28322 18.463C3.15818 18.4852 3.15818 18.6647 3.28322 18.687C3.29705 18.6894 3.31082 18.692 3.32456 18.6946Z" fill="url(#paint0_linear_399_17)"/>
  <defs>
    <linearGradient id="paint0_linear_399_17" x1="22" y1="21.5416" x2="-0.922653" y2="1.51429" gradientUnits="userSpaceOnUse">
      <stop stop-color="#B5BFFF"/>
      <stop offset="1" stop-color="#4E66FF"/>
    </linearGradient>
  </defs>
</svg>
