<svg viewBox="0 0 20 20" fill="none" xmlns="http://www.w3.org/2000/svg">
  <path d="M4.69674 14.1248C4.3713 14.4502 4.3713 14.9779 4.69674 15.3033C5.02218 15.6288 5.54981 15.6288 5.87525 15.3033L10 11.1785L14.1248 15.3033C14.4502 15.6288 14.9779 15.6288 15.3033 15.3033C15.6288 14.9779 15.6288 14.4503 15.3033 14.1248L11.1785 10L15.3033 5.87523C15.6288 5.54979 15.6288 5.02215 15.3033 4.69671C14.9779 4.37128 14.4503 4.37128 14.1248 4.69671L10 8.82152L5.87523 4.69673C5.54979 4.37129 5.02215 4.37129 4.69671 4.69673C4.37128 5.02216 4.37128 5.5498 4.69671 5.87524L8.82151 10L4.69674 14.1248Z" fill="white" fill-opacity="0.5"/>
</svg>
