<svg viewBox="0 0 24 24" fill="none" xmlns="http://www.w3.org/2000/svg">
  <path fill-rule="evenodd" clip-rule="evenodd" d="M12 22C17.5228 22 22 17.5228 22 12C22 6.47715 17.5228 2 12 2C6.47715 2 2 6.47715 2 12C2 17.5228 6.47715 22 12 22ZM10.8562 17.1254C10.3512 17.0587 9.90472 16.9465 9.51672 16.7887C8.84448 16.5056 8.33779 16.1102 7.99666 15.6025C7.66555 15.0851 7.5 14.4749 7.5 13.772H9.99833C9.99833 14.0356 10.0736 14.2699 10.2241 14.4749C10.3746 14.6799 10.6003 14.841 10.9013 14.9582C11.2124 15.0656 11.5987 15.1192 12.0602 15.1192C12.6622 15.1192 13.1338 15.0265 13.4749 14.841C13.8261 14.6457 14.0017 14.3675 14.0017 14.0063C14.0017 13.7036 13.8562 13.4596 13.5652 13.2741C13.2843 13.0788 12.8127 12.9519 12.1505 12.8933L11.4582 12.8347C10.3545 12.7371 9.47659 12.4149 8.82441 11.8682C8.17224 11.3117 7.84615 10.5307 7.84615 9.5251C7.84615 8.83194 8.00167 8.25593 8.31271 7.79707C8.62375 7.33821 9.07525 6.99651 9.66722 6.77197C10.0044 6.6385 10.3807 6.54305 10.796 6.48561V5H12.9933V6.51371C13.3907 6.5819 13.7469 6.68751 14.0619 6.83054C14.6739 7.09414 15.1355 7.4749 15.4465 7.9728C15.7575 8.47071 15.913 9.07601 15.913 9.7887H13.4147C13.4147 9.53487 13.3495 9.3152 13.2191 9.12971C13.0886 8.93445 12.903 8.78312 12.6622 8.67573C12.4314 8.55858 12.1455 8.5 11.8043 8.5C11.4933 8.5 11.2274 8.54393 11.0067 8.6318C10.796 8.7099 10.6304 8.82706 10.51 8.98326C10.3997 9.12971 10.3445 9.31032 10.3445 9.5251C10.3445 9.7887 10.4448 10.0328 10.6455 10.2573C10.8562 10.4721 11.2074 10.6039 11.699 10.6527L12.3913 10.7113C13.6355 10.8089 14.6288 11.1311 15.3712 11.6778C16.1237 12.2148 16.5 12.9909 16.5 14.0063C16.5 14.6994 16.3294 15.2852 15.9883 15.7636C15.6472 16.2322 15.1455 16.5886 14.4833 16.8326C14.0648 16.9869 13.5882 17.0924 13.0535 17.1492V19H10.8562V17.1254Z" fill="url(#paint0_linear_485_543)"/>
  <defs>
      <linearGradient id="paint0_linear_485_1295" x1="22" y1="22" x2="0.398188" y2="3.9131" gradientUnits="userSpaceOnUse">
        <stop stop-color="#B5BFFF"/>
        <stop offset="1" stop-color="#4E66FF"/>
      </linearGradient>
  </defs>
</svg>
