<svg viewBox="0 0 24 24" xmlns="http://www.w3.org/2000/svg">
  <path d="M4.0254 10.6881L6.50092 11.6692C6.2218 12.3427 5.99916 13.0364 5.83509 13.7436L5.74119 14.1516L9.29014 17.5458L9.71696 17.4581C10.4569 17.3012 11.1826 17.0884 11.8873 16.8216L12.9138 19.1878C12.9239 19.2112 12.9399 19.2319 12.9603 19.248C12.9808 19.2641 13.0052 19.275 13.0312 19.2799C13.0573 19.2847 13.0841 19.2833 13.1095 19.2758C13.1348 19.2683 13.1577 19.2548 13.1763 19.2367L14.7278 17.7538C14.9809 17.5118 15.1782 17.2218 15.3069 16.9024C15.4355 16.5831 15.4927 16.2415 15.4747 15.8997L15.4192 14.9471C18.2916 12.9196 21.1982 9.36425 21.99 3.15927C22.0124 3.0037 21.997 2.84527 21.9449 2.69634C21.8928 2.5474 21.8054 2.41199 21.6895 2.30064C21.5736 2.1893 21.4324 2.10504 21.2769 2.05442C21.1213 2.00381 20.9557 1.98821 20.7928 2.00884C14.3031 2.77171 10.5813 5.55192 8.45999 8.28929L7.46552 8.24034C7.1087 8.22178 6.75177 8.2748 6.41768 8.396C6.08358 8.5172 5.77973 8.70389 5.52565 8.94406L3.97418 10.427C3.95268 10.4444 3.9364 10.467 3.92698 10.4924C3.91756 10.5179 3.91533 10.5452 3.92053 10.5717C3.92573 10.5982 3.93817 10.6229 3.95659 10.6434C3.975 10.6638 3.99874 10.6792 4.0254 10.6881ZM13.9787 7.07359C14.2476 6.81748 14.5898 6.64328 14.9622 6.57296C15.3346 6.50264 15.7204 6.53937 16.071 6.6785C16.4216 6.81763 16.7211 7.05294 16.9319 7.35469C17.1426 7.65645 17.2551 8.01113 17.2551 8.37394C17.2551 8.73675 17.1426 9.09143 16.9319 9.39319C16.7211 9.69495 16.4216 9.93025 16.071 10.0694C15.7204 10.2085 15.3346 10.2452 14.9622 10.1749C14.5898 10.1046 14.2476 9.9304 13.9787 9.67429C13.7996 9.50374 13.6576 9.30108 13.5606 9.07794C13.4637 8.8548 13.4138 8.61556 13.4138 8.37394C13.4138 8.13232 13.4637 7.89309 13.5606 7.66994C13.6576 7.4468 13.7996 7.24414 13.9787 7.07359ZM3.5623 17.8171C3.1515 17.6793 2.71036 17.6455 2.28186 17.7191C2.24378 17.727 2.20423 17.7255 2.16691 17.7148C2.12959 17.7041 2.09571 17.6846 2.06845 17.658C2.03466 17.6258 2.01203 17.5845 2.00363 17.5396C1.99524 17.4947 2.00147 17.4484 2.02151 17.4071C2.47606 16.4728 3.68181 14.5942 5.86496 16.1118C5.87637 16.1216 5.88549 16.1335 5.89174 16.1469C5.89798 16.1602 5.90121 16.1747 5.90121 16.1893C5.90121 16.2039 5.89798 16.2184 5.89174 16.2318C5.88549 16.2451 5.87637 16.2571 5.86496 16.2668C5.57268 16.4868 5.33867 16.7695 5.18185 17.092C5.02503 17.4144 4.94981 17.7676 4.96225 18.123C4.96384 18.1647 4.98189 18.2043 5.01277 18.2338C5.04365 18.2633 5.08507 18.2806 5.12871 18.2821C5.49896 18.2963 5.86753 18.2274 6.20481 18.0807C6.54209 17.934 6.83867 17.7138 7.07071 17.4377C7.08092 17.4257 7.09378 17.4161 7.10836 17.4095C7.12294 17.4029 7.13887 17.3994 7.15501 17.3994C7.17114 17.3994 7.18708 17.4029 7.20166 17.4095C7.21624 17.4161 7.2291 17.4257 7.2393 17.4377C7.54234 17.7824 8.37676 18.9083 7.45271 19.9955C7.0493 20.459 6.47129 20.7521 5.84362 20.8114C4.94731 20.9032 3.29128 21.1827 2.61478 21.9211C2.58762 21.9518 2.55224 21.975 2.51241 21.988C2.47258 22.001 2.42979 22.0035 2.38861 21.9951C2.34742 21.9868 2.30939 21.9679 2.27857 21.9404C2.24774 21.913 2.22528 21.8781 2.21357 21.8395C1.97456 21.0603 1.60323 19.3183 3.5623 17.8171Z" fill="url(#paint0_linear_485_601)"/>
  <defs>
    <linearGradient id="paint0_linear_485_601" x1="22" y1="22" x2="0.398188" y2="3.9131" gradientUnits="userSpaceOnUse">
      <stop stop-color="#B5BFFF"/>
      <stop offset="1" stop-color="#4E66FF"/>
    </linearGradient>
  </defs>
</svg>
