<svg width="770" height="168" viewBox="0 0 770 168" fill="none" xmlns="http://www.w3.org/2000/svg">
  <g opacity="0.2">
    <path
      d="M206.931 24.8802L196.473 14.4365L201.702 9.21461L212.161 19.6583L206.931 24.8802ZM217.39 35.3352L227.849 45.7789L233.078 40.5458L222.62 30.1021L217.39 35.3352ZM217.39 19.6583L196.461 40.5458L201.702 45.7789L222.62 24.8802L233.078 14.4365L227.849 9.21461L217.39 19.6583ZM5.24063 131.411L0.0112702 136.633L10.47 147.076L15.6993 141.854L5.24063 131.411ZM20.94 157.531L31.3987 167.975L36.628 162.742L26.1693 152.298L20.94 157.531ZM20.94 141.854L0.0112702 162.742L5.2519 167.975L26.1693 147.076L36.628 136.633L31.3987 131.411L20.94 141.854ZM87.9185 85.7194C83.3879 82.1181 78.3952 79.1583 72.9405 76.8625C67.4857 74.5667 62.031 72.496 56.5762 70.6503C51.1215 68.8046 46.1288 66.8577 41.5982 64.787C37.0676 62.7162 33.416 60.1841 30.6548 57.1905C27.8937 54.1969 26.5074 50.2467 26.5074 45.34C26.5074 39.5104 28.7727 34.9863 33.3033 31.7676C37.8339 28.549 44.0889 26.9397 52.0794 26.9397C58.5259 26.9397 64.2512 28.2001 69.2439 30.7323C74.2366 33.2644 79.0376 37.1358 83.6471 42.3577L101.623 24.4075C96.3937 17.9702 89.5978 12.6696 81.2353 8.52809C72.8616 4.38661 63.3834 2.31588 52.7782 2.31588C42.9506 2.31588 34.0359 4.08275 26.0453 7.60525C18.0548 11.139 11.721 16.2371 7.03258 22.9107C2.34419 29.5844 0 37.676 0 47.1857C0 55.4686 1.38623 62.2998 4.14742 67.668C6.90861 73.0362 10.5601 77.414 15.0907 80.7789C19.6214 84.1551 24.614 86.9574 30.0688 89.1744C35.5236 91.4027 40.9783 93.3947 46.4331 95.1616C51.8878 96.9285 56.8805 98.9204 61.4111 101.149C65.9417 103.377 69.5933 106.179 72.3544 109.544C75.1156 112.92 76.5019 117.287 76.5019 122.655C76.5019 129.092 73.8534 134.157 68.5564 137.837C63.2594 141.517 55.2238 143.363 46.3204 143.363V167.986C63.6764 167.986 77.4598 163.766 87.6819 155.326C97.8926 146.896 103.009 135.462 103.009 121.046C103.009 112.459 101.623 105.324 98.8619 99.6519C96.1007 93.9799 92.4491 89.332 87.9185 85.7307V85.7194ZM743.504 4.61171V165.668H770V4.61171H743.504ZM521.02 58.451C514.573 54.7709 507.191 52.9252 498.896 52.9252C490.601 52.9252 483.422 54.8046 476.897 58.5635C472.637 61.0168 468.997 64.0667 465.954 67.6792V-0.00244141H440.607V165.657H465.954V101.925C465.954 97.0185 467.024 92.6406 469.177 88.8143C471.329 84.9767 474.327 81.9943 478.159 79.8448C482.002 77.6953 486.375 76.6262 491.289 76.6262C498.66 76.6262 504.689 79.012 509.378 83.7612C514.066 88.5217 516.41 94.5763 516.41 101.936V165.668H541.757V96.4107C541.757 87.8239 539.908 80.2725 536.223 73.7452C532.538 67.2291 527.466 62.131 521.02 58.4397V58.451ZM161.456 9.21461H136.11V55.2323H109.614V78.2468H136.11V165.679H161.456V78.2468H187.952V55.2323H161.456V9.21461ZM293.441 9.21461H268.095V55.2323H241.598V78.2468H268.095V165.679H293.441V78.2468H319.937V55.2323H293.441V9.21461ZM367.114 81.578C371.949 78.7419 377.517 77.3239 383.817 77.3239C389.193 77.3239 394.151 78.2805 398.682 80.205C403.213 82.1294 407.09 84.9992 410.313 88.8368L426.902 72.0458C421.673 65.9124 415.339 61.1969 407.89 57.8995C400.44 54.6021 392.416 52.9477 383.817 52.9477C372.907 52.9477 363.034 55.4799 354.21 60.5442C345.374 65.6085 338.432 72.4735 333.36 81.1391C328.289 89.8047 325.753 99.5844 325.753 110.478C325.753 121.372 328.289 130.961 333.36 139.694C338.432 148.427 345.374 155.337 354.21 160.401C363.046 165.465 372.907 167.998 383.817 167.998C392.416 167.998 400.44 166.343 407.89 163.046C415.339 159.748 421.673 155.033 426.902 148.9L410.313 132.109C407.09 135.946 403.201 138.816 398.682 140.74C394.151 142.665 389.193 143.621 383.817 143.621C377.517 143.621 371.949 142.203 367.114 139.367C362.279 136.531 358.504 132.615 355.822 127.629C353.128 122.644 351.787 116.927 351.787 110.49C351.787 104.052 353.128 98.1439 355.822 93.2371C358.504 88.3304 362.268 84.459 367.114 81.6117V81.578ZM665.424 4.61171L731.321 165.668H702.751L690.466 134.607H621.144L608.747 165.668H580.639L646.997 4.61171H665.435H665.424ZM681.36 111.604L655.957 47.3882L630.329 111.604H681.36ZM202.108 165.679H227.454V55.2435H202.108V165.679Z"
      fill="url(#paint0_linear_565_1628)"
    />
  </g>
  <defs>
    <linearGradient
      id="paint0_linear_565_1628"
      x1="770"
      y1="167.998"
      x2="680.045"
      y2="-177.21"
      gradientUnits="userSpaceOnUse"
    >
      <stop stop-color="#B5BFFF" />
      <stop offset="1" stop-color="#4E66FF" />
    </linearGradient>
  </defs>
</svg>
